Coordinates
version=1
nRows=24
nColumns=24
inDegrees=yes

Units are S.I. units (second, meters, Newtons, ...)
Angles are in degrees.

endheader
time	pelvis_tilt	pelvis_list	pelvis_rotation	pelvis_tx	pelvis_ty	pelvis_tz	hip_flexion_r	hip_adduction_r	hip_rotation_r	knee_angle_r	ankle_angle_r	subtalar_angle_r	mtp_angle_r	hip_flexion_l	hip_adduction_l	hip_rotation_l	knee_angle_l	ankle_angle_l	subtalar_angle_l	mtp_angle_l	lumbar_extension	lumbar_bending	lumbar_rotation
      0.47100000	     -6.84455958	      7.04268549	      2.82652743	     -0.86666700	      0.99124255	      0.28412345	     30.62397526	     -7.19413053	     -6.42502557	     -1.90956606	     -0.90655618	     -5.88677592	     -1.13498841	     -2.97010535	      8.58852346	     -6.72963534	     -9.18351909	      8.73839298	     -8.18245479	      0.07506663	     -7.26013509	     -8.29521952	     -1.26083941
      0.47516667	     -6.74974525	      7.03481392	      2.79473265	     -0.86069428	      0.99068749	      0.28439848	     30.61046191	     -7.15407121	     -6.35887212	     -2.28806546	     -1.01690696	     -5.88271579	     -1.18711304	     -3.20746353	      8.51246507	     -6.66287510	     -9.66427826	      8.86280234	     -8.22239374	      0.07976663	     -7.33387003	     -8.22852820	     -1.26231092
      0.47933333	     -6.26318841	      6.89870618	      2.73472127	     -0.85456170	      0.99091435	      0.28475932	     30.08713517	     -6.97041421	     -6.34396942	     -2.58468318	     -1.22452613	     -6.04596008	     -1.48895727	     -3.87259911	      8.26117932	     -6.65980555	    -10.11615804	      8.99259294	     -7.95847686	      0.12302296	     -7.86774533	     -7.96826489	     -1.28262685
      0.48350000	     -5.89746494	      6.79000527	      2.65970794	     -0.84844672	      0.99093719	      0.28512621	     29.72610780	     -6.80819373	     -6.28019780	     -2.98252744	     -1.46020059	     -6.17253571	     -1.75970931	     -4.37986401	      8.05425880	     -6.64986636	    -10.62337245	      9.05233144	     -7.93365532	      0.19581462	     -8.25255958	     -7.75280099	     -1.25756143
      0.48766667	     -5.63013362	      6.67156017	      2.62237041	     -0.84230500	      0.99084950	      0.28543735	     29.47655160	     -6.65474764	     -6.24408876	     -3.45760422	     -1.73796105	     -6.36934432	     -1.95389365	     -4.74359234	      7.83514654	     -6.62769143	    -11.21461452	      9.13082861	     -7.82748781	      0.28696011	     -8.51365877	     -7.52356818	     -1.27130064
      0.49183333	     -5.29036540	      6.56864426	      2.52383571	     -0.83614720	      0.99088426	      0.28584287	     29.17180496	     -6.48824401	     -6.16955130	     -4.00016634	     -2.04313897	     -6.61484095	     -2.08374839	     -5.17935236	      7.63656073	     -6.62657838	    -11.81068943	      9.16974364	     -7.79462889	      0.38784641	     -8.85386484	     -7.31791660	     -1.24704226
      0.49600000	     -4.96772737	      6.40924908	      2.45133721	     -0.82991540	      0.99097544	      0.28626088	     28.85124895	     -6.27349717	     -6.11231566	     -4.53460944	     -2.40552114	     -6.89117352	     -2.18458707	     -5.55958799	      7.36394046	     -6.67323630	    -12.47467811	      9.15012377	     -7.70569808	      0.51987107	     -9.17742482	     -7.06140513	     -1.21639047
      0.50016667	     -4.61322797	      6.27091659	      2.35640531	     -0.82369330	      0.99114222	      0.28668297	     28.51017394	     -6.07303938	     -6.03562582	     -5.11818734	     -2.78685892	     -7.20588079	     -2.25338847	     -5.95370852	      7.12092153	     -6.70595518	    -13.17497782	      9.07207809	     -7.69627463	      0.67771804	     -9.53166904	     -6.81667866	     -1.18522341
      0.50433333	     -4.26774546	      6.10562986	      2.26855625	     -0.81740551	      0.99135964	      0.28710777	     28.15279282	     -5.84765425	     -5.96240166	     -5.68580273	     -3.21184913	     -7.54929973	     -2.29684129	     -6.30060298	      6.84175367	     -6.78337702	    -13.95054821	      8.97366823	     -7.64782250	      0.87711336	     -9.86102359	     -6.52402453	     -1.14030058
      0.50850000	     -3.92330511	      5.95710068	      2.14663334	     -0.81114556	      0.99159428	      0.28760820	     27.81653322	     -5.62289932	     -5.85196231	     -6.30040507	     -3.63974387	     -7.91080963	     -2.31569101	     -6.62072020	      6.58467658	     -6.88446424	    -14.76316066	      8.80546129	     -7.65413837	      1.11031038	    -10.19743970	     -6.27246750	     -1.08165106
      0.51266667	     -3.60156500	      5.80110619	      2.03020114	     -0.80486735	      0.99184259	      0.28811160	     27.49620850	     -5.39366278	     -5.73929901	     -6.92181467	     -4.08843820	     -8.29952253	     -2.31518562	     -6.87980853	      6.31734203	     -6.99094222	    -15.64848468	      8.59635401	     -7.66614519	      1.37822020	    -10.50656187	     -6.01319182	     -1.00393428
      0.51683333	     -3.15674877	      5.61305787	      1.82370078	     -0.79854028	      0.99230640	      0.28882193	     27.03449495	     -5.08794091	     -5.56246762	     -7.52190250	     -4.52879478	     -8.63313151	     -2.28050625	     -7.24484932	      6.00461747	     -7.25933877	    -16.57713268	      8.38483302	     -7.60225532	      1.94482628	    -10.95412652	     -5.72975174	     -0.85687995
      0.52100000	     -2.98443825	      5.49813965	      1.75131677	     -0.79231264	      0.99241147	      0.28918268	     26.88771351	     -4.93246103	     -5.47608808	     -8.20280939	     -4.98237450	     -9.00878815	     -2.27264590	     -7.25844131	      5.79828822	     -7.27613389	    -17.61378847	      8.04577723	     -7.83555402	      2.10332933	    -11.09243409	     -5.51297343	     -0.79591316
      0.52516667	     -2.72817409	      5.34199179	      1.61348704	     -0.78602278	      0.99269617	      0.28974286	     26.62584899	     -4.69505940	     -5.31822069	     -8.83664106	     -5.43915320	     -9.45650162	     -2.25569967	     -7.32820863	      5.53203327	     -7.43328926	    -18.69959194	      7.64290896	     -7.99969395	      2.33040292	    -11.32289713	     -5.25927473	     -0.72184209
      0.52933333	     -2.38928604	      5.20567487	      1.23772356	     -0.77970217	      0.99301566	      0.29096495	     26.31833916	     -4.34378059	     -4.87696692	     -9.49865068	     -5.82221098	     -9.94390157	     -1.61701787	     -7.46764984	      5.25804214	     -7.98417133	    -19.80780946	      7.10401127	     -7.97760094	     10.05940304	    -11.62468630	     -5.10573131	     -0.32038718
      0.53350000	     -2.13292645	      5.04167799	      1.15912477	     -0.77345487	      0.99343053	      0.29137429	     26.02399419	     -4.14065394	     -4.80795689	    -10.10485985	     -6.25453086	    -10.27947703	     -1.62579557	     -7.44063857	      4.97571458	     -8.08608298	    -21.05981101	      6.60382768	     -8.21809627	     10.10971331	    -11.86603168	     -4.84002204	     -0.26654978
      0.53766667	     -1.90488755	      4.87071691	      1.00605478	     -0.76714521	      0.99379924	      0.29191996	     25.77722233	     -3.89916287	     -4.68227449	    -10.75143781	     -6.54217932	    -10.53954220	     -1.63078975	     -7.35706148	      4.68629259	     -8.30318974	    -22.35377649	      6.00145257	     -8.50617607	     10.16027643	    -12.05322887	     -4.55141023	     -0.18370078
      0.54183333	     -1.52440495	      4.68693024	      0.70697231	     -0.76089998	      0.99439601	      0.29297438	     25.35778816	     -3.54939789	     -4.33893183	    -11.33362579	     -6.91243687	    -11.00915369	     -1.65202146	     -7.40055620	      4.34781526	     -8.75239492	    -23.70074783	      5.38287078	     -8.55740028	     10.46246988	    -12.43350406	     -4.34396760	      0.15251938
      0.54600000	     -1.35933644	      4.52313115	      0.56210630	     -0.75464183	      0.99475335	      0.29354087	     25.16168773	     -3.32204249	     -4.20522222	    -11.96057881	     -7.14338872	    -11.17670898	     -1.66131873	     -7.15154262	      4.05206583	     -8.96808307	    -25.14796888	      4.64616315	     -8.91643980	     10.54868727	    -12.55987881	     -4.08221732	      0.25478388
      0.55016667	     -1.09128309	      4.35889996	      0.22070604	     -0.74843818	      0.99520136	      0.29474662	     24.86838658	     -2.96934465	     -3.79367372	    -12.55863474	     -7.41339318	    -11.65720998	     -1.71894600	     -6.98349834	      3.71679323	     -9.48576463	    -26.64495857	      3.89004763	     -9.07160160	     11.07203840	    -12.79777785	     -3.92672395	      0.69381774
      0.55433333	     -0.92513063	      4.17897523	      0.04520542	     -0.74222340	      0.99560943	      0.29540126	     24.65051003	     -2.71482781	     -3.64994826	    -13.14534624	     -7.63641164	    -11.79416693	     -1.75050041	     -6.64868802	      3.38388919	     -9.75766354	    -28.22988039	      3.04720257	     -9.51601342	     11.29048707	    -12.92578030	     -3.66911189	      0.84892414
      0.55850000	     -0.74157098	      3.98555669	     -0.39301125	     -0.73601190	      0.99591355	      0.29687358	     24.44722187	     -2.28639338	     -3.13621635	    -13.75099978	     -7.72862101	    -12.10167380	     -1.92567052	     -6.31987313	      2.98544790	    -10.41938864	    -29.85553895	      2.21951297	     -9.66800068	     12.42654864	    -13.06605699	     -3.49233696	      1.39386563
      0.56266667	     -0.59705243	      3.78517063	     -0.49365106	     -0.72986578	      0.99637683	      0.29741917	     24.20901599	     -2.04755469	     -3.08279107	    -14.28858208	     -7.83591714	    -12.20195342	     -1.96496769	     -5.86774819	      2.60396162	    -10.60327226	    -31.57140134	      1.25805043	    -10.18739840	     12.62331578	    -13.17944066	     -3.21654619	      1.49666949
      0.56683333	     -0.54555476	      3.60044723	     -0.89139064	     -0.72374335	      0.99649250	      0.29884456	     24.13383314	     -1.64733303	     -2.61978970	    -14.89069209	     -7.82108512	    -12.42279133	     -2.28286531	     -5.30733983	      2.18755119	    -11.19144390	    -33.34314657	      0.39405489	    -10.45567255	     14.12206483	    -13.16653538	     -3.05715787	      2.03418859
